<?xml version="1.0" standalone="no"?>
<!DOCTYPE svg PUBLIC "-//W3C//DTD SVG 20010904//EN"
 "http://www.w3.org/TR/2001/REC-SVG-20010904/DTD/svg10.dtd">
<svg version="1.0" xmlns="http://www.w3.org/2000/svg"
 width="448.000000pt" height="448.000000pt" viewBox="0 0 448.000000 448.000000"
 preserveAspectRatio="xMidYMid meet">
<metadata>
Created by potrace 1.14, written by Peter Selinger 2001-2017
</metadata>
<g transform="translate(0.000000,448.000000) scale(0.100000,-0.100000)"
fill="#000000" stroke="none">
<path d="M1878 2955 c-3 -3 -54 -7 -114 -9 -96 -3 -119 -8 -187 -36 -122 -50
-271 -161 -323 -239 -33 -51 -62 -136 -80 -239 -21 -123 -93 -257 -189 -352
-61 -61 -78 -72 -130 -85 -33 -9 -93 -32 -133 -51 -56 -28 -80 -35 -105 -30
-24 4 -44 -1 -82 -23 -55 -32 -135 -112 -135 -136 0 -21 30 -19 54 4 29 27
104 54 146 54 19 -1 59 -7 88 -14 44 -11 60 -11 100 1 31 10 92 15 177 15 90
0 137 4 153 13 20 11 29 11 55 0 21 -8 80 -13 167 -14 74 -1 187 -5 250 -9 75
-5 159 -3 242 5 108 11 130 11 144 -1 13 -11 58 -14 203 -15 183 0 187 -1 226
-26 25 -17 68 -31 115 -38 61 -10 80 -18 100 -41 79 -89 143 -115 238 -95 34
7 86 11 116 8 44 -3 65 1 112 22 87 40 124 71 124 106 0 41 -37 66 -110 74
-49 6 -191 55 -210 73 -3 3 62 3 143 2 94 -2 151 1 155 7 11 17 95 34 164 34
83 1 209 17 222 30 12 12 -10 79 -45 134 -23 37 -39 48 -136 90 -152 66 -181
86 -185 133 l-3 38 -60 8 c-33 5 -70 10 -82 13 -11 2 -47 29 -78 59 -31 30
-64 55 -73 56 -9 0 -57 2 -107 5 -124 5 -286 4 -307 -2 -14 -4 -18 0 -18 18 0
29 -61 186 -95 243 -35 61 -135 148 -211 184 -61 29 -72 31 -178 31 -62 0
-115 -2 -118 -5z m-105 -292 c35 5 138 -42 200 -92 21 -16 47 -33 57 -36 10
-3 23 -18 29 -33 62 -166 84 -220 103 -250 18 -29 19 -38 9 -55 -12 -19 -11
-20 18 -14 38 8 47 -5 25 -38 -16 -24 -16 -70 0 -105 5 -12 -5 -18 -43 -27
-100 -24 -249 -111 -263 -155 -5 -14 -121 -26 -263 -27 -147 -1 -325 39 -339
75 -6 17 -2 19 75 34 54 10 58 10 124 -24 38 -19 73 -32 78 -29 5 3 -10 16
-34 28 -24 12 -61 31 -81 42 l-38 21 28 10 c15 5 41 13 57 18 36 11 41 40 7
37 -45 -5 -122 -45 -120 -61 2 -9 -4 -18 -12 -19 -17 -4 -100 97 -100 121 0 9
-9 49 -20 88 -11 40 -20 78 -20 85 0 7 27 31 61 53 86 57 347 308 361 347 11
31 12 32 41 16 16 -8 43 -13 60 -10z m827 -227 c0 -32 -28 -164 -39 -183 -6
-12 -13 -5 -26 31 -15 38 -16 55 -7 98 12 62 7 76 -10 28 -11 -33 -11 -33 -20
-10 -13 35 -3 48 39 53 21 2 44 4 51 5 7 1 12 -9 12 -22z m76 7 c-12 -44 -46
-216 -43 -219 5 -6 24 60 38 136 15 81 24 100 49 100 25 0 25 -9 -4 -138 -13
-59 -28 -141 -32 -182 l-7 -75 -18 40 c-9 22 -18 54 -19 70 -2 18 -4 23 -7 13
-2 -10 -7 -18 -10 -18 -15 0 -43 35 -43 52 0 42 42 223 53 230 23 15 49 9 43
-9z m108 -46 c-14 -53 -39 -345 -31 -354 3 -2 8 35 11 84 14 209 39 323 70
323 8 0 22 3 32 7 14 5 16 3 10 -13 -15 -37 -56 -417 -56 -511 0 -38 -22 -45
-42 -14 -8 13 -16 17 -23 11 -8 -6 -19 -5 -31 4 -17 13 -19 28 -19 148 0 193
47 397 86 373 4 -3 1 -29 -7 -58z m151 33 c10 -11 15 -23 12 -27 -4 -3 -7 -1
-7 5 0 7 -7 12 -16 12 -15 0 -16 -9 -10 -64 4 -38 0 -108 -9 -177 -8 -63 -15
-148 -15 -190 0 -69 -2 -77 -21 -82 -13 -4 -22 0 -26 11 -7 17 12 341 26 440
8 58 23 92 41 92 4 0 15 -9 25 -20z m-581 -231 c13 -39 -1 -117 -25 -130 -16
-8 -25 -5 -47 19 -15 16 -33 31 -40 33 -21 7 -3 37 29 48 32 11 41 36 9 26
-14 -4 -20 -2 -20 8 0 22 12 28 49 25 28 -2 38 -9 45 -29z m1041 -60 c68 -25
113 -67 137 -127 19 -50 24 -48 -117 -56 -49 -3 -117 -8 -150 -12 l-60 -6 6
138 c4 77 7 140 8 141 1 2 27 -10 59 -26 31 -16 84 -40 117 -52z m-1125 -64
c10 -12 10 -19 1 -28 -17 -17 -45 4 -49 37 -3 24 -1 26 16 17 10 -5 25 -17 32
-26z m-973 -67 c29 -27 29 -41 1 -53 -31 -14 -35 -52 -8 -80 19 -20 19 -23 5
-29 -9 -3 -29 -6 -43 -6 -32 0 -132 45 -132 59 0 21 119 129 144 130 6 1 20
-9 33 -21z m980 -40 c25 -27 63 -101 63 -122 0 -21 -90 -30 -224 -23 -98 5
-113 8 -129 28 -16 20 -16 23 -1 40 17 19 125 74 174 90 50 15 96 10 117 -13z"/>
<path d="M1782 2128 c-44 -22 -18 -32 74 -29 89 3 112 10 100 30 -9 14 -144
13 -174 -1z"/>
<path d="M1706 1927 c-49 -15 -67 -40 -44 -63 13 -14 23 -14 65 -6 84 18 103
29 103 57 0 23 -4 25 -42 24 -24 0 -61 -6 -82 -12z"/>
</g>
</svg>
